<svg width="113" height="113" viewBox="0 0 113 113" fill="none" xmlns="http://www.w3.org/2000/svg">
<g clip-path="url(#clip0)">
<path d="M56.5 113C87.7041 113 113 87.7041 113 56.5C113 25.2959 87.7041 0 56.5 0C25.2959 0 0 25.2959 0 56.5C0 87.7041 25.2959 113 56.5 113Z" fill="#71E2EF"/>
<path d="M103.435 87.9614C109.475 78.9691 113 68.1465 113 56.5C113 54.0954 112.849 51.7262 112.557 49.4004L100.131 36.9742L85.7079 45.3849L63.9909 23.668L63.3407 31.8644L56.5303 29.5168L49.8191 34.3462L74.1536 58.6805L72.0611 60.6589L48.3766 36.9746L38.5893 45.6919L33.8102 40.9122L14.6154 49.1755L74.9517 109.512L74.3419 110.122C85.3834 106.449 94.9121 99.4645 101.746 90.3428L87.1932 75.7899L89.2287 73.7543L103.435 87.9614Z" fill="#38C6D9"/>
<path d="M62.3508 112.7C64.5135 112.477 66.6387 112.13 68.7223 111.67L25.598 68.5462L23.3354 73.6848L62.3508 112.7Z" fill="#38C6D9"/>
<path d="M56.2109 112.996L26.4446 69.5222C24.3023 66.3933 19.7423 66.2326 17.3852 69.2033L6.53082 82.8842C15.965 100.715 34.6599 112.888 56.2109 112.996Z" fill="#4076A3"/>
<path d="M26.4447 69.5219C25.4822 68.116 24.0311 67.3149 22.5113 67.1222V101.626C31.8978 108.708 43.5604 112.933 56.2107 112.996L26.4447 69.5219Z" fill="#386895"/>
<path d="M63.2228 24.7075H49.8188V34.3461H63.2228V24.7075Z" fill="#C92F00"/>
<path d="M63.2217 55.1072C62.6962 55.1072 62.2705 54.6814 62.2705 54.1559V24.2235C62.2705 23.698 62.6962 23.2723 63.2217 23.2723C63.7472 23.2723 64.173 23.698 64.173 24.2235V54.1559C64.173 54.6814 63.7472 55.1072 63.2217 55.1072Z" fill="#930000"/>
<path d="M68.2966 48.8497C66.1542 45.7208 61.5943 45.5602 59.2372 48.5308L19.2283 98.9591C29.1756 107.698 42.2179 113 56.5 113C73.4511 113 88.6567 105.533 99.0127 93.7112L68.2966 48.8497Z" fill="#273B7A"/>
<path d="M99.0127 93.7112L68.2966 48.8495C67.1341 47.1519 65.2599 46.3357 63.412 46.4119V112.576C77.556 110.85 90.0866 103.901 99.0127 93.7112Z" fill="#121149"/>
<path d="M56.5 113C81.2603 113 102.298 97.0716 109.932 74.9031L100.256 60.7708C98.1134 57.6419 93.5534 57.4812 91.1963 60.4519L49.8193 112.605C52.0109 112.863 54.2394 113 56.5 113Z" fill="#386895"/>
<path d="M109.932 74.9031L100.256 60.7708C98.8924 58.7794 96.5508 57.9957 94.4201 58.451V98.3795C101.403 92.0524 106.798 84.0042 109.932 74.9031Z" fill="#273B7A"/>
<path d="M41.4714 51.4291C46.3746 51.4291 50.349 47.4543 50.349 42.5516C50.349 37.6489 46.3746 33.6736 41.4714 33.6736C41.3805 33.6736 41.2907 33.6778 41.2006 33.6804C39.6978 29.3939 35.6179 26.3191 30.8183 26.3191C25.0926 26.3191 20.3903 30.6934 19.8668 36.2825C15.7471 36.3576 12.4286 39.7147 12.4286 43.8524C12.4286 48.0369 15.8209 51.4291 20.0054 51.4291H41.4714Z" fill="white"/>
<path d="M41.4715 33.6736C41.3805 33.6736 41.2907 33.6778 41.2007 33.6804C39.7244 29.47 35.7608 26.4363 31.0721 26.3292V51.4289H41.4717C46.3748 51.4289 50.3492 47.454 50.3492 42.5513C50.3492 37.6486 46.3746 33.6736 41.4715 33.6736Z" fill="#D0D1D3"/>
<path d="M95.3153 47.2413C98.7742 47.2413 101.578 44.4372 101.578 40.9784C101.578 37.5195 98.7742 34.7155 95.3153 34.7155C95.2511 34.7155 95.1877 34.7186 95.1244 34.7203C94.0639 31.6963 91.1862 29.527 87.7999 29.527C83.7604 29.527 80.4432 32.6131 80.074 36.5557C77.1675 36.6087 74.8265 38.977 74.8265 41.8961C74.8265 44.8482 77.2196 47.2413 80.1718 47.2413H95.3153Z" fill="white"/>
<path d="M95.3153 34.7151C95.2511 34.7151 95.1878 34.7182 95.1244 34.7199C94.0805 31.742 91.272 29.5972 87.9529 29.5325V47.2411H95.3158C98.7746 47.2411 101.579 44.4371 101.579 40.9782C101.578 37.5191 98.7742 34.7151 95.3153 34.7151Z" fill="#D0D1D3"/>
</g>
<defs>
<clipPath id="clip0">
<rect width="113" height="113" fill="white"/>
</clipPath>
</defs>
</svg>
